<svg width="180" height="180" viewBox="0 0 180 180" fill="none" xmlns="http://www.w3.org/2000/svg">
  <!-- Background circle -->
  <circle cx="90" cy="90" r="90" fill="#3B82F6"/>
  
  <!-- White "s" letter -->
  <path d="M67.5 56.25C67.5 53.125 70.625 50 75 50H105C109.375 50 112.5 53.125 112.5 56.25C112.5 59.375 109.375 62.5 105 62.5H75C70.625 62.5 67.5 59.375 67.5 56.25Z" fill="white"/>
  <path d="M67.5 90C67.5 86.875 70.625 83.75 75 83.75H105C109.375 83.75 112.5 86.875 112.5 90C112.5 93.125 109.375 96.25 105 96.25H75C70.625 96.25 67.5 93.125 67.5 90Z" fill="white"/>
  <path d="M75 118.75C70.625 118.75 67.5 121.875 67.5 125C67.5 128.125 70.625 131.25 75 131.25H105C109.375 131.25 112.5 128.125 112.5 125C112.5 121.875 109.375 118.75 105 118.75H75Z" fill="white"/>
</svg> 