<svg width="32" height="32" viewBox="0 0 32 32" fill="none" xmlns="http://www.w3.org/2000/svg">
  <!-- Blue square with rounded corners -->
  <rect x="4" y="4" width="24" height="24" rx="8" fill="#3B82F6"/>
  
  <!-- White "s" letter -->
  <path d="M12 10C12 9.44772 12.4477 9 13 9H19C19.5523 9 20 9.44772 20 10C20 10.5523 19.5523 11 19 11H13C12.4477 11 12 10.5523 12 10Z" fill="white"/>
  <path d="M12 16C12 15.4477 12.4477 15 13 15H19C19.5523 15 20 15.4477 20 16C20 16.5523 19.5523 17 19 17H13C12.4477 17 12 16.5523 12 16Z" fill="white"/>
  <path d="M13 21C12.4477 21 12 21.4477 12 22C12 22.5523 12.4477 23 13 23H19C19.5523 23 20 22.5523 20 22C20 21.4477 19.5523 21 19 21H13Z" fill="white"/>
</svg> 